<svg xmlns="http://www.w3.org/2000/svg" viewBox="18 18 72 72" width="512" height="512"><rect x="18" y="18" width="72" height="72" fill="#18181B"/><path d="M-8,54H39" fill="none" stroke="#FF5A1F" stroke-width="8" stroke-linecap="butt" stroke-linejoin="round"/><path d="M43,37h22a6,6 0 0,1 6,6v22a6,6 0 0,1 -6,6h-22a6,6 0 0,1 -6,-6v-22a6,6 0 0,1 6,-6z" fill="#FFFFFF"/><path d="M45,54a9,9 0 1,0 18,0a9,9 0 1,0 -18,0z" fill="none" stroke="#18181B" stroke-width="4.5" stroke-linecap="round" stroke-linejoin="round"/><path d="M50.2,54a3.8,3.8 0 1,0 7.6,0a3.8,3.8 0 1,0 -7.6,0z" fill="#FF5A1F"/></svg>